<svg xmlns="http://www.w3.org/2000/svg" xmlns:xlink="http://www.w3.org/1999/xlink" viewBox="0 0 2048 2048"><defs><style>.cls-1{opacity:0.25;fill:url(#linear-gradient);}.cls-2{fill:url(#linear-gradient-2);}.cls-3{fill:url(#linear-gradient-3);}.cls-4{fill:url(#linear-gradient-4);}.cls-5{fill:url(#linear-gradient-5);}.cls-6{fill:url(#linear-gradient-6);}</style><linearGradient id="linear-gradient" x1="43.07" y1="906" x2="1911" y2="906" gradientUnits="userSpaceOnUse"><stop offset="0" stop-color="#ff8289"/><stop offset="0.47" stop-color="#ff5c6e"/><stop offset="1" stop-color="#ff2654"/></linearGradient><linearGradient id="linear-gradient-2" x1="-700.78" y1="4009.12" x2="1005.77" y2="4009.12" gradientTransform="matrix(1, 0, 0, -1, 718, 4724)" xlink:href="#linear-gradient"/><linearGradient id="linear-gradient-3" x1="-563.77" y1="3631.5" x2="1312.78" y2="3631.5" gradientTransform="matrix(1, 0, 0, -1, 718, 4724)" xlink:href="#linear-gradient"/><linearGradient id="linear-gradient-4" x1="221.21" y1="3392.54" x2="904.52" y2="3392.54" gradientTransform="matrix(1, 0, 0, -1, 718, 4724)" xlink:href="#linear-gradient"/><linearGradient id="linear-gradient-5" x1="-496.13" y1="3734.59" x2="1210.41" y2="3734.59" gradientTransform="matrix(1, 0, 0, -1, 718, 4724)" xlink:href="#linear-gradient"/><linearGradient id="linear-gradient-6" x1="-359.12" y1="3852.52" x2="48.44" y2="3852.52" gradientTransform="matrix(1, 0, 0, -1, 718, 4724)" xlink:href="#linear-gradient"/></defs><g id="Layer_2" data-name="Layer 2"><path class="cls-1" d="M745,1707l21.44-34H406s-140,24-149-150-14-93-14-93-49,25-137-63-58-251-58-251l6-979S46-21,792,44l695-16,161,58,53,118.65V328l135,21s69-27,60,128-9,702-9,702l24,427s-97,117-107,109-38-29-38-29l-105-107s-72,60-72,67-103,89-114,96-232,42-239,42-184-63-192-68"/></g><g id="Layer_1" data-name="Layer 1"><path class="cls-2" d="M1554.67,0H182C91,.1,17.33,76.53,17.22,170.85V1264.3c0,77.94,50.85,146,123.62,165.45l16.47-66.14c-43.75-11.69-74.2-52.48-74.18-99.31V170.15A102.5,102.5,0,0,1,185.64,67.64h1368a102.48,102.48,0,0,1,102.47,102.48v34.53h67.64v-34.1C1723.66,76.4,1648,.11,1554.67,0Z"/><path class="cls-3" d="M154.23,137h67.64v67.64H154.23Zm137,0h67.62v67.64H291.24Zm135.26,0h67.63v67.64H426.52ZM2020.78,1887.8,1697,1565a491.59,491.59,0,0,0,40.55-94.28h53.82v-69.37h-39.23a464.91,464.91,0,0,0-28.41-244.9V820.32h-67.64v218.14a479.13,479.13,0,0,0-67.64-71.1V683.31h-69.37v239.1a466.32,466.32,0,0,0-67.64-33.11V544.57h-67.63V860.12a468.78,468.78,0,0,0-67.64-9.51V612.21h-69.37V850.67a468.58,468.58,0,0,0-67.64,9.51V747.48h-67.64V880.61a374.76,374.76,0,0,0-67.64,31.81V716.26H974.55V963.85a494.39,494.39,0,0,0-72.84,70.46V783.9h-65.9v371.6a465.06,465.06,0,0,0-28.63,245.81H358.88V1469h463.3c74.85,252.2,340.23,395.84,592.72,321.16a477.22,477.22,0,0,0,139.2-67.24L1870.17,2038a34.2,34.2,0,0,0,48.27,0l102.32-102.1a33.94,33.94,0,0,0,.15-48l-.13-.13Zm-739.92-146.25c-226.38-.24-409.81-183.68-410-410s183.59-410,410.05-410,410,183.58,410,410S1507.31,1741.55,1280.86,1741.55Zm615.05,225-287.42-287.44a484.49,484.49,0,0,0,51.42-57l290.2,290.21Z"/><path class="cls-4" d="M1280.86,989.8c-188.72,0-341.65,153-341.65,341.66s153,341.65,341.65,341.65,341.66-153,341.66-341.65S1469.55,990.08,1280.86,989.8Zm0,615.83A273.39,273.39,0,0,1,1044.46,1469h472.79A273.41,273.41,0,0,1,1280.86,1605.63Zm-262.32-204.32a267.08,267.08,0,0,1,93-278.37v209h67.64V1080a272.4,272.4,0,0,1,67.64-17.78v271.43h69.37V1062.23a282.18,282.18,0,0,1,67.64,17.77v253.67h67.63V1122.94a267.1,267.1,0,0,1,93,278.37Z"/><path class="cls-5" d="M1757.83,272.28H393.37C298.7,272.39,222,348.77,221.87,443V1535.8c.12,94.26,76.83,170.64,171.5,170.74H839.28v-69.37h-480a68.07,68.07,0,0,1-68.07-68.06V408a68.07,68.07,0,0,1,68.07-68.07H1757.45s102.5,46.14,103.33,102.75V1531.46a107.41,107.41,0,0,1-26.35,67.51l51,45.09a172.28,172.28,0,0,0,42.94-112.55V442.37C1928,348.38,1757.83,272.28,1757.83,272.28Z"/><path class="cls-6" d="M358.88,409.29h67.64v67.64H358.88Zm135.27,0h67.64v67.64H494.15Zm137,0H698.8v67.64H631.16ZM426.52,1125.56h67.63V1330.2H426.52Zm137-204.65h67.63V1330.2H563.53ZM698.78,1025h67.66v308.7H698.8Z"/></g></svg>