<svg xmlns="http://www.w3.org/2000/svg" xmlns:xlink="http://www.w3.org/1999/xlink" viewBox="0 0 2048 2048"><defs><style>.cls-1{opacity:0.25;fill:url(#New_Gradient_Swatch);}.cls-10,.cls-11,.cls-12,.cls-13,.cls-14,.cls-15,.cls-16,.cls-17,.cls-18,.cls-19,.cls-2,.cls-20,.cls-3,.cls-4,.cls-5,.cls-6,.cls-7,.cls-8,.cls-9{fill:none;}.cls-10,.cls-11,.cls-12,.cls-13,.cls-14,.cls-15,.cls-16,.cls-17,.cls-18,.cls-19,.cls-20,.cls-3,.cls-4,.cls-5,.cls-6,.cls-7,.cls-8,.cls-9{stroke-linecap:round;stroke-linejoin:round;stroke-width:63.43px;}.cls-3{stroke:url(#linear-gradient);}.cls-4{stroke:url(#linear-gradient-2);}.cls-5{stroke:url(#linear-gradient-3);}.cls-6{stroke:url(#linear-gradient-4);}.cls-7{stroke:url(#linear-gradient-5);}.cls-8{stroke:url(#linear-gradient-6);}.cls-9{stroke:url(#linear-gradient-7);}.cls-10{stroke:url(#linear-gradient-8);}.cls-11{stroke:url(#linear-gradient-9);}.cls-12{stroke:url(#linear-gradient-10);}.cls-13{stroke:url(#linear-gradient-11);}.cls-14{stroke:url(#linear-gradient-12);}.cls-15{stroke:url(#linear-gradient-13);}.cls-16{stroke:url(#linear-gradient-14);}.cls-17{stroke:url(#linear-gradient-15);}.cls-18{stroke:url(#linear-gradient-16);}.cls-19{stroke:url(#linear-gradient-17);}.cls-20{stroke:url(#linear-gradient-18);}</style><linearGradient id="New_Gradient_Swatch" x1="35.11" y1="989.87" x2="2048" y2="989.87" gradientUnits="userSpaceOnUse"><stop offset="0" stop-color="#ff8289"/><stop offset="0.47" stop-color="#ff5c6e"/><stop offset="1" stop-color="#ff2654"/></linearGradient><linearGradient id="linear-gradient" x1="-506.8" y1="4280.9" x2="783.03" y2="4280.9" gradientTransform="matrix(1, 0, 0, -1, 718, 4724)" xlink:href="#New_Gradient_Swatch"/><linearGradient id="linear-gradient-2" x1="-506.8" y1="3723.32" x2="-443.37" y2="3723.32" gradientTransform="matrix(1, 0, 0, -1, 718, 4724)" xlink:href="#New_Gradient_Swatch"/><linearGradient id="linear-gradient-3" x1="452.94" y1="4514.31" x2="772.06" y2="4514.31" gradientTransform="matrix(1, 0, 0, -1, 718, 4724)" xlink:href="#New_Gradient_Swatch"/><linearGradient id="linear-gradient-4" x1="614.31" y1="3622.16" x2="1179.55" y2="3622.16" gradientTransform="matrix(1, 0, 0, -1, 718, 4724)" xlink:href="#New_Gradient_Swatch"/><linearGradient id="linear-gradient-5" x1="906.86" y1="3928.01" x2="1331.72" y2="3928.01" gradientTransform="matrix(1, 0, 0, -1, 718, 4724)" xlink:href="#New_Gradient_Swatch"/><linearGradient id="linear-gradient-6" x1="108.87" y1="3369.76" x2="1103.14" y2="3369.76" gradientTransform="matrix(1, 0, 0, -1, 718, 4724)" xlink:href="#New_Gradient_Swatch"/><linearGradient id="linear-gradient-7" x1="-717.98" y1="3193.35" x2="900.4" y2="3193.35" gradientTransform="matrix(1, 0, 0, -1, 718, 4724)" xlink:href="#New_Gradient_Swatch"/><linearGradient id="linear-gradient-8" x1="-507.16" y1="3134.96" x2="-370.04" y2="3134.96" gradientTransform="matrix(1, 0, 0, -1, 718, 4724)" xlink:href="#New_Gradient_Swatch"/><linearGradient id="linear-gradient-9" x1="-37.68" y1="3352.73" x2="144.86" y2="3352.73" gradientTransform="matrix(1, 0, 0, -1, 718, 4724)" xlink:href="#New_Gradient_Swatch"/><linearGradient id="linear-gradient-10" x1="185.17" y1="3271.82" x2="353.6" y2="3271.82" gradientTransform="matrix(1, 0, 0, -1, 718, 4724)" xlink:href="#New_Gradient_Swatch"/><linearGradient id="linear-gradient-11" x1="653.67" y1="3190.19" x2="895.6" y2="3190.19" gradientTransform="matrix(1, 0, 0, -1, 718, 4724)" xlink:href="#New_Gradient_Swatch"/><linearGradient id="linear-gradient-12" x1="283.69" y1="3382.3" x2="463.02" y2="3382.3" gradientTransform="matrix(1, 0, 0, -1, 718, 4724)" xlink:href="#New_Gradient_Swatch"/><linearGradient id="linear-gradient-13" x1="522.62" y1="3549.44" x2="679.15" y2="3549.44" gradientTransform="matrix(1, 0, 0, -1, 718, 4724)" xlink:href="#New_Gradient_Swatch"/><linearGradient id="linear-gradient-14" x1="518.83" y1="3346.69" x2="784.71" y2="3346.69" gradientTransform="matrix(1, 0, 0, -1, 718, 4724)" xlink:href="#New_Gradient_Swatch"/><linearGradient id="linear-gradient-15" x1="-299" y1="4351.35" x2="86.35" y2="4351.35" gradientTransform="matrix(1, 0, 0, -1, 718, 4724)" xlink:href="#New_Gradient_Swatch"/><linearGradient id="linear-gradient-16" x1="-299" y1="4093.7" x2="463.51" y2="4093.7" gradientTransform="matrix(1, 0, 0, -1, 718, 4724)" xlink:href="#New_Gradient_Swatch"/><linearGradient id="linear-gradient-17" x1="-299" y1="3928.64" x2="463.51" y2="3928.64" gradientTransform="matrix(1, 0, 0, -1, 718, 4724)" xlink:href="#New_Gradient_Swatch"/><linearGradient id="linear-gradient-18" x1="-299" y1="3762.24" x2="248.5" y2="3762.24" gradientTransform="matrix(1, 0, 0, -1, 718, 4724)" xlink:href="#New_Gradient_Swatch"/></defs><g id="Layer_2" data-name="Layer 2"><path class="cls-1" d="M596,55C581,55,227-54,227,190V1452s-411,228-30,497H1493l89-50,33-156,251-492s15-120-29-139-48-74-48-74l259-272V527L1657,947,1550,832l-57-10-24-449L1364,235,1203,55Z"/></g><g id="Layer_1" data-name="Layer 1"><rect class="cls-2" x="0.28" y="-142.65" width="2048" height="2288"/><path class="cls-3" d="M242.91,363.26V148c0-51.53,37.38-93.32,83.51-93.35h826.09a110.19,110.19,0,0,1,50.18,12.2,120.25,120.25,0,0,1,35.47,27.43l195.67,218.6c22.67,25.41,35.42,59.81,35.48,95.68V831.59"/><path class="cls-4" d="M242.91,1474.38V527"/><path class="cls-5" d="M1458.34,352.52h-176c-44,0-79.64-39.84-79.66-89V66.86a119.78,119.78,0,0,1,35.43,27.45l195.65,218.57A136.52,136.52,0,0,1,1458.34,352.52Z"/><path class="cls-6" d="M1789.42,1382.17,1364,906.9c22.82-20.13,63.66-49.24,92.39-68.67,39.28-27.23,90.17-20.66,122.86,15.85l257.41,287.58c32.69,36.51,38.56,93.37,14.18,137.25C1832.33,1312.56,1813.42,1346.92,1789.42,1382.17Z"/><path class="cls-7" d="M2018,766.36l-258.61,289L1656.57,940.45,2018,536.66"/><path class="cls-8" d="M1586.43,1801.59l203-419.46L1364,906.9,912.3,1179.74c-27.2,16.29-46.78,44.92-53.71,78.53"/><path class="cls-9" d="M717.93,1153.43c-46.51-27.4-98.32-41.67-150.91-41.56-178.94,0-324,162.05-324,362-117.54,1-212.11,108.24-211.23,239.55.87,129.93,94.93,235,211.23,236H1466.74c66.54,0,121.24-60.54,119.92-134.86-1.28-71.77-53.75-129.51-118.29-129.51H1323.14a278.27,278.27,0,0,0,1.5-28.58c0-138.18-100.27-250.19-224-250.19a202,202,0,0,0-61,9.38c-12.43-100.55-95.48-170.81-185.49-156.92a148.37,148.37,0,0,0-23.11,5.48"/><path class="cls-10" d="M316.25,1704c-47.75-64.75-73.81-146.06-73.7-229.94"/><path class="cls-11" d="M715.4,1478.25c-17.22-94.11,33.15-187.22,115.74-214"/><path class="cls-12" d="M934.89,1488.56c28.2-34.76,64.58-60,105-72.76"/><path class="cls-13" d="M1581.89,1382.17l-178.51,303.28"/><path class="cls-14" d="M1149.31,1299.12l-115.9,85.16"/><path class="cls-15" d="M1365.43,1140.34l-93.1,68.44"/><path class="cls-16" d="M1471,1264.23,1268.55,1490.4"/><path class="cls-17" d="M450.72,372.65H772.63"/><path class="cls-18" d="M450.72,630.3H1149.8"/><path class="cls-19" d="M450.72,795.36H1149.8"/><path class="cls-20" d="M450.72,961.76H934.79"/></g></svg>