<svg xmlns="http://www.w3.org/2000/svg" xmlns:xlink="http://www.w3.org/1999/xlink" viewBox="0 0 2048 2048"><defs><style>.cls-1{opacity:0.25;fill:url(#linear-gradient);}.cls-2{fill:url(#linear-gradient-2);}.cls-3{fill:url(#linear-gradient-3);}.cls-4{fill:url(#linear-gradient-4);}.cls-5{fill:url(#linear-gradient-5);}</style><linearGradient id="linear-gradient" x1="41.97" y1="1113.49" x2="2033" y2="1113.49" gradientUnits="userSpaceOnUse"><stop offset="0" stop-color="#ff8289"/><stop offset="0.47" stop-color="#ff5c6e"/><stop offset="1" stop-color="#ff2654"/></linearGradient><linearGradient id="linear-gradient-2" x1="246.27" y1="4650.1" x2="809.25" y2="4650.1" gradientTransform="matrix(1, 0, 0, -1, 718, 4724)" xlink:href="#linear-gradient"/><linearGradient id="linear-gradient-3" x1="-710.02" y1="3966.81" x2="976.59" y2="3966.81" gradientTransform="matrix(1, 0, 0, -1, 718, 4724)" xlink:href="#linear-gradient"/><linearGradient id="linear-gradient-4" x1="-710.02" y1="3299.76" x2="1330" y2="3299.76" gradientTransform="matrix(1, 0, 0, -1, 718, 4724)" xlink:href="#linear-gradient"/><linearGradient id="linear-gradient-5" x1="-143.27" y1="3788.13" x2="1197.12" y2="3788.13" gradientTransform="matrix(1, 0, 0, -1, 718, 4724)" xlink:href="#linear-gradient"/></defs><g id="Layer_2" data-name="Layer 2"><path class="cls-1" d="M1939,2018,174,2002,61,1877,42,1740V433s-10-72,338-53,255,53,255,53l74,165H990L851,456l77-107s164-182,385-131,338,200,338,200l43,18,180,147-60,258,154,9s50,36,50,93,15,956,15,956Z"/></g><g id="Layer_1" data-name="Layer 1"><path class="cls-2" d="M1215.15,34v66.27a32,32,0,0,0,30.53,32.16c20,.67,33.41-12.32,33.41-32V33.05A32.08,32.08,0,0,0,1247,1a30.74,30.74,0,0,0-3.59.21C1227.08,2.88,1215.15,17.56,1215.15,34Zm257.55,2.34-47.8,57.54c-9.55,12.8-9.55,35.18,3.12,44.77s35,9.6,44.6-3.13L1520.42,78c9.57-12.8,9.57-35.18-3.11-44.77-12.73-12.85-31.87-9.62-44.61,3.14Zm-497.12-3.2c-12.76,12.78-15.94,32-3.2,44.77l47.8,57.55c9.56,12.79,31.87,16,44.62,3.13s15.93-32,3.12-44.77l-47.8-57.54c-9.5-12.7-31.8-15.93-44.54-3.14Z"/><path class="cls-3" d="M8,473.1v829.56s13.77,31.2,30.79,31.94c19.83.66,33.18-12.3,33.15-32V473.71a64.57,64.57,0,0,1,63.75-64.27H548.09c28.56.32,50.78,19.52,60.31,45.13L637,541c15.88,54.41,120.63,89.12,120.63,89.12h255.53c71.74,37.55,149.72,59.46,230.83,59.46h5.7c132.65,0,255.82-53.88,347.48-145.77l88.17-88.46a31.87,31.87,0,0,0,0-44.91L1597.16,322c-192.66-190.13-505.34-190.13-694.84,3.14l-88.15,88.45a31.83,31.83,0,0,0,0,44.92h0l88.15,88.44c6.26,6.28,15.79,12.67,22.12,19H763.33c-28.69,0-51-19.19-60.56-44.77L674.1,434.82c-15.94-54.37-66.94-89.53-121.12-89.53H135.32C65.07,345.53,8.2,402.62,8,473.1Zm865.61-38,66.93-67.15c168.89-169.45,442.94-169.45,611.85-3.13l66.92,67.14-66.92,67.14C1472.7,582.2,1361.17,627,1246.44,627h-3.12C1017.06,627,911.9,463.9,873.68,435.12Z"/><path class="cls-4" d="M2048,942.78c-.21-74.09-60-134.09-133.85-134.3H1811.62a32,32,0,0,0-32.07,30.63c-.65,20,12.3,33.52,32,33.52h98.83a70.94,70.94,0,0,1,70.61,70.84V1907a70.49,70.49,0,0,1-70.18,70.44H1697.08V1263.84h118.53v559.7c0,19.71,18,35.41,37.18,31,13.51-3.13,22.09-14.82,22.09-31.16V1231.65a31.92,31.92,0,0,0-31.86-32H1665a31.93,31.93,0,0,0-31.87,32h0v741.05H1524V1536.8a31.92,31.92,0,0,0-31.87-32h-178a31.92,31.92,0,0,0-31.87,32v440.61H990.56V1442.23h113.85v412.46a31.86,31.86,0,0,0,30.53,32c20,.65,33.42-12.3,33.42-32V1410.05a31.92,31.92,0,0,0-31.87-32h-178a32,32,0,0,0-31.93,32h0v567.33H812.76v-270a32,32,0,0,0-31.93-32H602.94a32,32,0,0,0-31.93,32v270H400.16a231.2,231.2,0,0,0,74.15-169.72V943c.11-38.86,31.27-70.33,69.73-70.39h952.9s31.08-13.33,31.83-30.4c.67-19.92-12.31-33.3-32-33.75H544.38c-73.83.66-133.64,60.66-134,134.74v859.39c.16,92.33-76.73,168.79-169.65,168.79S67.24,1802.6,67.24,1802.6V1486.15c0-19.43-17.25-35.21-36.28-31.67-14,2.63-23,13.63-23,29.15v322.95C8,1934.9,112.66,2040,240.62,2040H1914.13c73.86-.21,133.67-60.23,133.87-134.33ZM635,1739.55H748.81v237.86H635ZM1346.16,1569H1460v408.42H1346.16Z"/><path class="cls-5" d="M1794,762.17c69,0,124.61-58,120.94-128.07-3.23-61.66-53-111.56-114.41-114.79-69.86-3.68-127.65,52.06-127.65,121.34,0,32,12.75,60.76,31.87,80l-220,355c-12.76-3.13-25.5-6.38-41.45-6.38-47.79,0-86,25.57-105.17,67.14l-191.25-57.57c-3.12-64-54.17-115.11-117.93-115.11-66.86,0-121.08,54.31-121.11,121.39v1.15a88.13,88.13,0,0,0,9.51,41.38L749.26,1344c-15.87-9.55-34.91-12.73-53.94-12.73-67.56,0-122.15,55.73-120.56,123.88,1.5,64.18,53.66,116.52,117.62,118,67.92,1.61,123.49-53.14,123.5-120.93v.47a115.51,115.51,0,0,0-19.12-63.93L956.05,1181c19.12,16,44.59,25.56,73.28,25.56,44.6,0,86-25.56,105.13-63.91l191.12,57.53c3.2,63.91,57.34,111.86,117.87,111.86,66.82,0,121-54.29,121.06-121.34v-.09q0-43.15-28.69-76.69L1758.89,755.8c9.57,3.13,22.31,6.38,35.06,6.38Zm1.33-179A57.55,57.55,0,1,1,1738,640.74h0a57.24,57.24,0,0,1,56.85-57.6h.52ZM691.89,1506.44a63.32,63.32,0,1,1,.53,0H692Zm334.61-367.78a57.55,57.55,0,1,1,57.36-57.56h0a57.23,57.23,0,0,1-56.89,57.56h-.47Zm416.7,106.41a57.55,57.55,0,1,1,57.36-57.56v0a57.18,57.18,0,0,1-56.85,57.53h-.51Zm-199.94-678c73.3,0,133.85-60.75,133.85-134.28s-60.56-134.29-133.85-134.29c-35.06,0-70.19,12.78-95.61,38.37s-38.24,57.55-38.24,95.92C1112.69,506.35,1170,567.1,1243.26,567.1Zm-47.8-182.24c12.74-12.79,31.86-19.19,47.8-19.19,38.24,0,70.18,32,70.18,70.34s-31.86,70.42-70.18,70.42-70.19-32-70.19-70.42C1173.15,413.64,1182.71,397.58,1195.46,384.86Z"/></g></svg>