<svg xmlns="http://www.w3.org/2000/svg" xmlns:xlink="http://www.w3.org/1999/xlink" viewBox="0 0 2048 2048"><defs><style>.cls-1,.cls-8{opacity:0.25;}.cls-2{fill:url(#linear-gradient);}.cls-3{fill:url(#linear-gradient-2);}.cls-4{fill:url(#linear-gradient-3);}.cls-5{fill:url(#linear-gradient-4);}.cls-6{fill:url(#linear-gradient-5);}.cls-7{fill:url(#linear-gradient-6);}.cls-8{fill:url(#linear-gradient-7);}.cls-9{fill:url(#linear-gradient-8);}.cls-10{fill:url(#linear-gradient-9);}</style><linearGradient id="linear-gradient" x1="453" y1="589.5" x2="726" y2="589.5" gradientUnits="userSpaceOnUse"><stop offset="0" stop-color="#ff8289"/><stop offset="0.47" stop-color="#ff5c6e"/><stop offset="1" stop-color="#ff2654"/></linearGradient><linearGradient id="linear-gradient-2" x1="43" y1="1088" x2="147" y2="1088" xlink:href="#linear-gradient"/><linearGradient id="linear-gradient-3" x1="1023" y1="95.5" x2="1132" y2="95.5" xlink:href="#linear-gradient"/><linearGradient id="linear-gradient-4" x1="478" y1="1882" x2="684" y2="1882" xlink:href="#linear-gradient"/><linearGradient id="linear-gradient-5" x1="2294.69" y1="2096.32" x2="2500.69" y2="2096.32" gradientTransform="translate(-522.69 -1507.32)" xlink:href="#linear-gradient"/><linearGradient id="linear-gradient-6" x1="726" y1="1359" x2="2020" y2="1359" xlink:href="#linear-gradient"/><linearGradient id="linear-gradient-7" x1="1202" y1="1333.5" x2="1475" y2="1333.5" xlink:href="#linear-gradient"/><linearGradient id="linear-gradient-8" x1="-32.46" y1="3356.74" x2="1329.41" y2="3356.74" gradientTransform="matrix(1, 0, 0, -1, 718, 4724)" xlink:href="#linear-gradient"/><linearGradient id="linear-gradient-9" x1="-718.22" y1="3700.35" x2="1328.91" y2="3700.35" gradientTransform="matrix(1, 0, 0, -1, 718, 4724)" xlink:href="#linear-gradient"/></defs><g id="Layer_2" data-name="Layer 2"><g class="cls-1"><ellipse class="cls-2" cx="589.5" cy="589.5" rx="136.5" ry="115.5"/><circle class="cls-3" cx="95" cy="1088" r="52"/><circle class="cls-4" cx="1077.5" cy="95.5" r="54.5"/><rect class="cls-5" x="478" y="1779" width="206" height="206" transform="translate(-1256.12 1171.72) rotate(-51.71)"/><rect class="cls-6" x="1772" y="486" width="206" height="206" transform="translate(250.8 1695.58) rotate(-51.71)"/><polygon class="cls-7" points="1511 2013 1431 1811 1053 1661 726 832 837 705 1651 1046 1780 1398 2020 1518 1511 2013"/></g><ellipse class="cls-8" cx="1338.5" cy="1333.5" rx="136.5" ry="149.5"/></g><g id="Layer_1" data-name="Layer 1"><path class="cls-9" d="M2029.22,1490.3l-209.78-104.88-133.51-347.31a31.93,31.93,0,0,0-17.86-18.24l-828.5-331.1a32,32,0,0,0-34.38,7L694.7,806.31a31.93,31.93,0,0,0-6.88,34.24L1019,1668.92a32,32,0,0,0,18.22,17.86l347.31,133.51,104.91,209.84a32,32,0,0,0,23.51,17.75,27.15,27.15,0,0,0,5.1,0,32,32,0,0,0,22.56-9.44l497-497a31.26,31.26,0,0,0-8.32-51.17ZM754.86,835.72l17.74-17.58L1185,1230.52c-59.91,84.92-39.63,202.32,45.29,262.22s202.32,39.63,262.22-45.29,39.62-202.32-45.3-262.22a188.15,188.15,0,0,0-217,0L817.85,772.88l17.56-17.7,795.83,318.36,125.51,326.52-357.06,357-326.51-125.53Zm583.79,379.16a124.27,124.27,0,0,1,124.09,127.43c-1.63,65.92-55.46,119.63-121.39,121.1a124.28,124.28,0,1,1-2.74-248.53Zm188.21,746.39-79.94-159.9,353.81-353.92,159.91,79.94Z"/><path class="cls-10" d="M611.86,1711.51a32.93,32.93,0,0,0-45.24,0L526,1752.12c-222.2-301.56-228.62-710.88-16-1019.27a164.06,164.06,0,0,0,223.23-222c308.37-212.61,717.66-206.19,1019.21,16L1711.18,567a32.26,32.26,0,0,0,0,45.26l141,139.94a32,32,0,0,0,45.1,0L2037.55,612a32,32,0,0,0,0-45.22h0L1897.31,426.48a32,32,0,0,0-45.1,0l-54.2,53.9A942,942,0,0,0,853,370.52l184.36-184a98,98,0,1,0-45.73-45.26L680.47,453A164.22,164.22,0,0,0,452.6,680.75L141,991.89a98.17,98.17,0,1,0,45.26,45.25L370.57,853.32a942,942,0,0,0,109.38,945l-54,54.21a32,32,0,0,0,0,45.09l140.22,140.23a31.85,31.85,0,0,0,45,.22l.23-.22,140.39-140.23a32,32,0,0,0,0-45.09ZM1875.08,493.86l95,95-95,95-95-95ZM1055.76,74.6a34.07,34.07,0,1,1,.22,48.17h0l-.21-.19a33.91,33.91,0,0,1,0-47.94Zm-537.43,444a99.92,99.92,0,0,1,141.31-.34h0l.35.33a100.25,100.25,0,1,1-141.79.12ZM122.41,1103.88a33.91,33.91,0,1,1,0-48A33.91,33.91,0,0,1,122.41,1103.88Zm466.75,865.54-95-95,95-95,95,95Z"/></g></svg>