<svg id="Layer_1" data-name="Layer 1" xmlns="http://www.w3.org/2000/svg" xmlns:xlink="http://www.w3.org/1999/xlink" viewBox="0 0 2048 2048"><defs><style>.cls-1,.cls-10,.cls-11,.cls-12,.cls-13,.cls-14,.cls-15,.cls-16,.cls-17,.cls-18,.cls-19,.cls-2,.cls-3,.cls-4,.cls-5,.cls-6,.cls-7,.cls-8,.cls-9{fill:none;}.cls-10,.cls-11,.cls-12,.cls-13,.cls-14,.cls-15,.cls-16,.cls-17,.cls-18,.cls-19,.cls-2,.cls-3,.cls-4,.cls-5,.cls-6,.cls-7,.cls-8,.cls-9{stroke-linecap:round;stroke-linejoin:round;stroke-width:49.96px;}.cls-2{stroke:url(#New_Gradient_Swatch_copy);}.cls-3{stroke:url(#New_Gradient_Swatch_copy-2);}.cls-4{stroke:url(#New_Gradient_Swatch_copy-3);}.cls-5{stroke:url(#New_Gradient_Swatch_copy-4);}.cls-6{stroke:url(#New_Gradient_Swatch_copy-5);}.cls-7{stroke:url(#New_Gradient_Swatch_copy-6);}.cls-8{stroke:url(#New_Gradient_Swatch_copy-7);}.cls-9{stroke:url(#New_Gradient_Swatch_copy-8);}.cls-10{stroke:url(#New_Gradient_Swatch_copy-9);}.cls-11{stroke:url(#New_Gradient_Swatch_copy-10);}.cls-12{stroke:url(#New_Gradient_Swatch_copy-11);}.cls-13{stroke:url(#New_Gradient_Swatch_copy-12);}.cls-14{stroke:url(#New_Gradient_Swatch_copy-13);}.cls-15{stroke:url(#New_Gradient_Swatch_copy-14);}.cls-16{stroke:url(#New_Gradient_Swatch_copy-15);}.cls-17{stroke:url(#New_Gradient_Swatch_copy-16);}.cls-18{stroke:url(#New_Gradient_Swatch_copy-17);}.cls-19{stroke:url(#New_Gradient_Swatch_copy-18);}</style><linearGradient id="New_Gradient_Swatch_copy" x1="290.5" y1="574.72" x2="1361.45" y2="574.72" gradientUnits="userSpaceOnUse"><stop offset="0" stop-color="#ff8289"/><stop offset="0.47" stop-color="#ff5c6e"/><stop offset="1" stop-color="#ff2654"/></linearGradient><linearGradient id="New_Gradient_Swatch_copy-2" x1="290.5" y1="990.71" x2="340.46" y2="990.71" xlink:href="#New_Gradient_Swatch_copy"/><linearGradient id="New_Gradient_Swatch_copy-3" x1="1089.52" y1="400.79" x2="1352.35" y2="400.79" xlink:href="#New_Gradient_Swatch_copy"/><linearGradient id="New_Gradient_Swatch_copy-4" x1="1224.15" y1="1066.09" x2="1691.88" y2="1066.09" xlink:href="#New_Gradient_Swatch_copy"/><linearGradient id="New_Gradient_Swatch_copy-5" x1="1467.69" y1="838.18" x2="1818.57" y2="838.18" xlink:href="#New_Gradient_Swatch_copy"/><linearGradient id="New_Gradient_Swatch_copy-6" x1="803.36" y1="1254.19" x2="1628.26" y2="1254.19" xlink:href="#New_Gradient_Swatch_copy"/><linearGradient id="New_Gradient_Swatch_copy-7" x1="113.17" y1="1385.82" x2="1460.02" y2="1385.82" xlink:href="#New_Gradient_Swatch_copy"/><linearGradient id="New_Gradient_Swatch_copy-8" x1="290.5" y1="1429.16" x2="401.81" y2="1429.16" xlink:href="#New_Gradient_Swatch_copy"/><linearGradient id="New_Gradient_Swatch_copy-9" x1="681.37" y1="1266.88" x2="830.47" y2="1266.88" xlink:href="#New_Gradient_Swatch_copy"/><linearGradient id="New_Gradient_Swatch_copy-10" x1="866.88" y1="1327.17" x2="1004.25" y2="1327.17" xlink:href="#New_Gradient_Swatch_copy"/><linearGradient id="New_Gradient_Swatch_copy-11" x1="1256.91" y1="1387.98" x2="1455.48" y2="1387.98" xlink:href="#New_Gradient_Swatch_copy"/><linearGradient id="New_Gradient_Swatch_copy-12" x1="948.9" y1="1244.84" x2="1095.35" y2="1244.84" xlink:href="#New_Gradient_Swatch_copy"/><linearGradient id="New_Gradient_Swatch_copy-13" x1="1147.81" y1="1120.27" x2="1275.28" y2="1120.27" xlink:href="#New_Gradient_Swatch_copy"/><linearGradient id="New_Gradient_Swatch_copy-14" x1="1144.66" y1="1271.38" x2="1363.16" y2="1271.38" xlink:href="#New_Gradient_Swatch_copy"/><linearGradient id="New_Gradient_Swatch_copy-15" x1="463.93" y1="522.58" x2="782.06" y2="522.58" xlink:href="#New_Gradient_Swatch_copy"/><linearGradient id="New_Gradient_Swatch_copy-16" x1="463.93" y1="714.39" x2="1095.35" y2="714.39" xlink:href="#New_Gradient_Swatch_copy"/><linearGradient id="New_Gradient_Swatch_copy-17" x1="463.93" y1="838.18" x2="1095.35" y2="838.18" xlink:href="#New_Gradient_Swatch_copy"/><linearGradient id="New_Gradient_Swatch_copy-18" x1="463.93" y1="961.97" x2="916.85" y2="961.97" xlink:href="#New_Gradient_Swatch_copy"/></defs><rect class="cls-1" x="113.17" y="139" width="1705.39" height="1705.39"/><path class="cls-2" d="M315.48,515.08V354.82A69.56,69.56,0,0,1,385,285.26h687.7a100.49,100.49,0,0,1,41.77,9.09A99.35,99.35,0,0,1,1144,314.79l162.89,162.9a101.26,101.26,0,0,1,29.54,71.3V864.17"/><path class="cls-3" d="M315.48,1343.48V637.94"/><path class="cls-4" d="M1327.37,507.22H1180.82a66.34,66.34,0,0,1-66.32-66.31V294.35A99.14,99.14,0,0,1,1144,314.8l162.88,162.88A100.78,100.78,0,0,1,1327.37,507.22Z"/><path class="cls-5" d="M1603.28,1275,1249.13,920.83c19-15,53-36.69,76.92-51.17a82.87,82.87,0,0,1,102.28,11.81l214.3,214.3a82.84,82.84,0,0,1,11.8,102.28C1639,1223.13,1623.26,1248.73,1603.28,1275Z"/><path class="cls-6" d="M1793.58,816.1l-215.3,215.34-85.6-85.61,300.9-300.9"/><path class="cls-7" d="M1434.28,1587.55l169-312.58L1249.13,920.83,873.06,1124.15a89.08,89.08,0,0,0-44.72,58.52"/><path class="cls-8" d="M711.18,1104.57a268.5,268.5,0,0,0-125.74-31c-149.09,0-270,120.86-270,270a177.33,177.33,0,0,0,0,354.65h1021a98.58,98.58,0,0,0,0-197.16h-121a187.49,187.49,0,0,0,1.25-21.32c0-103.05-83.55-186.59-186.6-186.59a186.43,186.43,0,0,0-50.79,7A137.08,137.08,0,0,0,805.5,1187.2"/><path class="cls-9" d="M376.83,1514.83a268.84,268.84,0,0,1-61.35-171.35"/><path class="cls-10" d="M709.13,1346.6a137.37,137.37,0,0,1,96.36-159.44"/><path class="cls-11" d="M891.86,1354.28a186.6,186.6,0,0,1,87.41-54.22"/><path class="cls-12" d="M1430.5,1275l-148.61,226"/><path class="cls-13" d="M1070.37,1213.11l-96.49,63.46"/><path class="cls-14" d="M1250.3,1094.79l-77.51,51"/><path class="cls-15" d="M1338.18,1187.11l-168.54,168.54"/><path class="cls-16" d="M488.92,522.58H757.08"/><path class="cls-17" d="M488.92,714.39h581.45"/><path class="cls-18" d="M488.92,838.18h581.45"/><path class="cls-19" d="M488.92,962H891.86"/></svg>