<svg id="Layer_1" data-name="Layer 1" xmlns="http://www.w3.org/2000/svg" xmlns:xlink="http://www.w3.org/1999/xlink" viewBox="0 0 2048 2048"><defs><style>.cls-1{fill:url(#linear-gradient);}.cls-2{fill:url(#linear-gradient-2);}.cls-3{fill:url(#linear-gradient-3);}.cls-4{fill:url(#linear-gradient-4);}.cls-5{fill:url(#linear-gradient-5);}</style><linearGradient id="linear-gradient" x1="406" y1="826.2" x2="1389.59" y2="826.2" gradientUnits="userSpaceOnUse"><stop offset="0" stop-color="#ff8289"/><stop offset="0.47" stop-color="#ff5c6e"/><stop offset="1" stop-color="#ff2654"/></linearGradient><linearGradient id="linear-gradient-2" x1="484.5" y1="1043.75" x2="1566.6" y2="1043.75" xlink:href="#linear-gradient"/><linearGradient id="linear-gradient-3" x1="937.17" y1="1181.87" x2="1331.22" y2="1181.87" xlink:href="#linear-gradient"/><linearGradient id="linear-gradient-4" x1="523.75" y1="984.3" x2="1507.35" y2="984.3" xlink:href="#linear-gradient"/><linearGradient id="linear-gradient-5" x1="602.26" y1="916.19" x2="837.76" y2="916.19" xlink:href="#linear-gradient"/></defs><path class="cls-1" d="M1291.46,414H498.36c-51,.06-92.3,44.13-92.36,98.51V1143c0,44.94,28.5,84.18,69.29,95.4l9.23-38.14C460,1193.52,442.93,1170,442.94,1143V512.36a59.11,59.11,0,0,1,59.11-59.11h789.18a59.1,59.1,0,0,1,59.11,59.11v19.39h39.25V512.13A98.24,98.24,0,0,0,1291.46,414Z"/><path class="cls-2" d="M484.5,492.5h39.25v39.25H484.5Zm78.51,0h39.25v39.25H563Zm78.5,0h39.25v39.25H641.51Zm919.33,1010.13-186.67-186.15a270.86,270.86,0,0,0,23.38-55.11h31.29v-39.25h-22.76A266.22,266.22,0,0,0,1389.59,1081V887.33h-39.25v125a276,276,0,0,0-39.25-40.74V808.82h-39.25V948.1a269.88,269.88,0,0,0-39.25-19.29V728h-39.25V911.16a272,272,0,0,0-39.26-5.52V767.26h-39.25V905.64a271.84,271.84,0,0,0-39.25,5.52v-65.4h-39.25v78.77a215,215,0,0,0-39.25,18.82V827.29H957.83V971a284,284,0,0,0-41.56,40.9V866.55H877v214a267.78,267.78,0,0,0-16.49,141.56H602.26v39.25H869.72c43.16,145.18,196.18,228,341.77,184.94a275.32,275.32,0,0,0,80.26-38.77L1474,1589.25a19.71,19.71,0,0,0,27.83,0l59-58.87A19.57,19.57,0,0,0,1560.84,1502.63ZM1134.2,1418.3c-130.53-.14-236.3-105.91-236.44-236.43s105.86-236.43,236.44-236.43,236.43,105.85,236.43,236.43S1264.77,1418.3,1134.2,1418.3Zm354.64,129.76-165.73-165.74a279,279,0,0,0,29.65-32.84l167.33,167.34Z"/><path class="cls-3" d="M1134.2,984.84c-108.82,0-197,88.21-197,197s88.21,197,197,197,197-88.22,197-197S1243,985,1134.2,984.84Zm0,355.34a157.63,157.63,0,0,1-136.31-78.81H1270.5A157.63,157.63,0,0,1,1134.2,1340.18ZM982.62,1222.12a155.56,155.56,0,0,1,53.71-161.62v122.36h39.25v-146a156,156,0,0,1,39.25-10.25v156.26h39.25V1026.6a156,156,0,0,1,39.26,10.25v146h39.25V1060.5a155.58,155.58,0,0,1,53.71,161.62Z"/><path class="cls-4" d="M1409.22,571H622.52c-54.52.06-98.7,44.08-98.77,98.4v629.78c.07,54.32,44.25,98.34,98.77,98.4H879.33v-39.25H622.11a59.1,59.1,0,0,1-59.1-59.11V669.36a59.1,59.1,0,0,1,59.1-59.1H1409a59.11,59.11,0,0,1,59.11,59.1v627.8a58.93,58.93,0,0,1-14.72,38.93l29.43,26a98,98,0,0,0,24.54-64.9v-628A98.24,98.24,0,0,0,1409.22,571Z"/><path class="cls-5" d="M602.26,649.51h39.25v39.25H602.26Zm78.5,0H720v39.25H680.76Zm78.5,0h39.25v39.25H759.26ZM641.51,1062.8h39.25v117.76H641.51ZM720,945.05h39.25v235.51H720Zm78.5,60h39.25v177.78H798.51Z"/></svg>