<svg id="Layer_1" data-name="Layer 1" xmlns="http://www.w3.org/2000/svg" xmlns:xlink="http://www.w3.org/1999/xlink" viewBox="0 0 2048 2048"><defs><style>.cls-1{fill:url(#linear-gradient);}.cls-2{fill:url(#linear-gradient-2);}</style><linearGradient id="linear-gradient" x1="797.04" y1="1227.72" x2="1711.74" y2="1227.72" gradientUnits="userSpaceOnUse"><stop offset="0" stop-color="#ff8289"/><stop offset="0.47" stop-color="#ff5c6e"/><stop offset="1" stop-color="#ff2654"/></linearGradient><linearGradient id="linear-gradient-2" x1="336.38" y1="997.34" x2="1711.48" y2="997.34" xlink:href="#linear-gradient"/></defs><path class="cls-1" d="M1699.59,1310.39l-140.91-70.45L1469,1006.65a21.48,21.48,0,0,0-12-12.25L900.49,772a21.5,21.5,0,0,0-23.09,4.73l-74.22,74.22a21.45,21.45,0,0,0-4.62,23L1021,1430.37a21.52,21.52,0,0,0,12.24,12l233.29,89.68L1337,1673a21.49,21.49,0,0,0,15.79,11.92,17.87,17.87,0,0,0,3.43,0,21.45,21.45,0,0,0,15.15-6.34l333.82-333.82a21,21,0,0,0-5.59-34.37Zm-856-439.29,11.92-11.81,277,277a126.39,126.39,0,1,0,30.39-30.4l-277-277L897.7,817l534.56,213.84,84.31,219.33L1276.73,1490l-219.32-84.32Zm392.14,254.55a83.48,83.48,0,1,1-59.07,24.39A83.46,83.46,0,0,1,1235.7,1125.65Zm126.42,501.49-53.7-107.41L1546.11,1282l107.41,53.7Z"/><path class="cls-2" d="M747.54,1459.37a22.12,22.12,0,0,0-30.39,0l-27.29,27.28A589.78,589.78,0,0,1,679.12,802,110.2,110.2,0,0,0,829.06,652.85a589.78,589.78,0,0,1,684.61,10.74l-27.71,27a21.66,21.66,0,0,0,0,30.4l94.73,94a21.48,21.48,0,0,0,30.29,0l94.2-94.2a21.48,21.48,0,0,0,0-30.38h0l-94.2-94.2a21.48,21.48,0,0,0-30.29,0l-36.41,36.2a632.73,632.73,0,0,0-634.77-73.79L1033.35,435a65.84,65.84,0,1,0-30.72-30.4L793.62,614A110.31,110.31,0,0,0,640.56,767L431.23,976a65.94,65.94,0,1,0,30.4,30.39L585.46,882.92a632.75,632.75,0,0,0,73.47,634.77l-36.3,36.41a21.48,21.48,0,0,0,0,30.29l94.19,94.19a21.39,21.39,0,0,0,30.4,0l94.3-94.19a21.48,21.48,0,0,0,0-30.29Zm848.51-817.9,63.8,63.8-63.8,63.79-63.8-63.79ZM1045.59,359.85a22.88,22.88,0,1,1,.14,32.35l-.14-.13a22.78,22.78,0,0,1,0-32.2ZM684.71,658.11a67.12,67.12,0,0,1,94.93-.22l.23.22a67.34,67.34,0,1,1-95.24.08ZM418.77,1051.22a22.78,22.78,0,1,1,0-32.22,22.87,22.87,0,0,1,0,32.22Zm313.52,581.39-63.8-63.8,63.8-63.8,63.8,63.8Z"/></svg>