<svg id="Layer_1" data-name="Layer 1" xmlns="http://www.w3.org/2000/svg" xmlns:xlink="http://www.w3.org/1999/xlink" viewBox="0 0 2048 2048"><defs><style>.cls-1{fill:url(#linear-gradient);}.cls-2{fill:url(#linear-gradient-2);}.cls-3{fill:url(#linear-gradient-3);}.cls-4{fill:url(#linear-gradient-4);}</style><linearGradient id="linear-gradient" x1="924.84" y1="386.29" x2="1285.85" y2="386.29" gradientUnits="userSpaceOnUse"><stop offset="0" stop-color="#ff8289"/><stop offset="0.47" stop-color="#ff5c6e"/><stop offset="1" stop-color="#ff2654"/></linearGradient><linearGradient id="linear-gradient-2" x1="312" y1="823.54" x2="1392.02" y2="823.54" xlink:href="#linear-gradient"/><linearGradient id="linear-gradient-3" x1="312" y1="1249.36" x2="1620" y2="1249.36" xlink:href="#linear-gradient"/><linearGradient id="linear-gradient-4" x1="674.64" y1="937.33" x2="1534.85" y2="937.33" xlink:href="#linear-gradient"/></defs><path class="cls-1" d="M1085.4,360.81v42.05a20.32,20.32,0,0,0,19.44,20.41c12.72.42,21.27-7.82,21.27-20.33V360.2A20.39,20.39,0,0,0,1103.38,340C1093,341.06,1085.4,350.37,1085.4,360.81Zm165.43,1.35-30.65,36.77c-6.12,8.18-6.12,22.48,2,28.61s22.47,6.13,28.6-2l30.65-36.78c6.13-8.18,6.13-22.48-2-28.61C1271.27,351.94,1259,354,1250.83,362.16Zm-318.74-2.05c-8.18,8.17-10.22,20.43-2.05,28.61l30.65,36.78c6.13,8.17,20.43,10.21,28.61,2s10.21-20.43,2-28.61l-30.65-36.77C954.56,354,940.26,351.94,932.09,360.11Z"/><path class="cls-2" d="M312,641.81v529.58a20.32,20.32,0,0,0,19.44,20.41c12.71.42,21.27-7.86,21.27-20.43V641.65a41,41,0,0,1,40.86-40.87H658c18.31,0,32.56,12.27,38.67,28.64L715,684.63c10.18,34.77,42.74,57.27,77.34,57.27H956.18c46,24,96,38,148,38h3.66c84.75,0,163.44-34.31,222-92.82l56.33-56.33a20.24,20.24,0,0,0,0-28.6l-56.33-56.33c-123.09-121.07-322.86-121.07-443.93,2l-56.32,56.32a20.23,20.23,0,0,0,0,28.61l56.32,56.32c4,4,10.09,8.07,14.13,12.11H796.69c-18.41,0-32.72-12.27-38.86-28.63l-18.4-55.22c-10.23-34.77-42.95-57.26-77.72-57.26h-268A82,82,0,0,0,312,641.81Zm554.7-25.22,42.91-42.91c108.29-108.29,284-108.29,392.3-2l42.91,42.9-42.91,42.91c-51.08,53.13-122.59,81.73-196.15,81.73h-2c-145.07,0-212.5-104.2-237-122.59Z"/><path class="cls-3" d="M1620,941.69a86.07,86.07,0,0,0-85.82-85.82h-65.39a20.33,20.33,0,0,0-20.42,19.44c-.41,12.72,7.83,21.27,20.34,21.27h62.92a45.08,45.08,0,0,1,44.95,44.95v615.65a45.09,45.09,0,0,1-44.95,45H1394.76v-455.9h76v357.67c0,12.6,11.55,22.63,23.83,19.8,8.66-2,14.16-9.47,14.16-19.91V1126a20.43,20.43,0,0,0-20.43-20.43H1374.49a20.43,20.43,0,0,0-20.43,20.43v473.46H1283.5V1321.35a20.43,20.43,0,0,0-20.43-20.43H1149.25a20.43,20.43,0,0,0-20.43,20.43v280.79H941.58V1260.21h73.27v263.58a20.32,20.32,0,0,0,19.43,20.42c12.72.42,21.27-7.86,21.27-20.42V1239.94a20.43,20.43,0,0,0-20.43-20.43H921.3a20.43,20.43,0,0,0-20.43,20.43v362.2H827.6V1429.9a20.44,20.44,0,0,0-20.43-20.44H693.35a20.44,20.44,0,0,0-20.43,20.44v172.24H562.65a146.92,146.92,0,0,0,47.86-108.39V941.53a45.07,45.07,0,0,1,45-44.95h610.86a20.32,20.32,0,0,0,20.41-19.43c.43-12.73-7.89-21.28-20.52-21.28H655.62a86.07,86.07,0,0,0-85.82,85.82v549.19c0,59-49.3,107.86-108.88,107.86S350,1549.9,350,1490.87V1288.64c0-12.41-11.06-22.49-23.26-20.23-9,1.68-14.73,8.71-14.73,18.62v206.65c0,82,67.12,149.16,149.16,149.16h1073A86.07,86.07,0,0,0,1620,1557ZM713.63,1450.17H786.9v152H713.63Zm455.9-108.55h73.27v260.52h-73.27Z"/><path class="cls-4" d="M1457.2,826a77.64,77.64,0,1,0-77.64-77.64c0,20.43,8.17,38.82,20.43,51.08l-141,226.8c-8.18-2-16.35-4.08-26.57-4.08-30.64,0-55.16,16.34-67.42,42.9l-122.6-36.78c-2-40.86-34.73-73.55-75.6-73.55a77.6,77.6,0,0,0-77.64,77.64,56.49,56.49,0,0,0,6.13,26.56L787,1197.84c-10.22-6.13-22.48-8.17-34.74-8.17a77.65,77.65,0,1,0,77.64,77.65,73.62,73.62,0,0,0-12.26-40.87l102.17-132.81c12.26,10.22,28.6,16.34,47,16.34,28.61,0,55.17-16.34,67.43-40.86l122.59,36.78c2.05,40.86,36.78,71.51,75.6,71.51a77.61,77.61,0,0,0,77.65-77.64q0-27.58-18.39-49l143-228.84c6.13,2,14.3,4.08,22.47,4.08Zm0-114.42a36.78,36.78,0,1,1-36.78,36.78A36.63,36.63,0,0,1,1457.2,711.55Zm-707,590.5A36.78,36.78,0,1,1,787,1265.27,36.62,36.62,0,0,1,750.24,1302.05Zm214.54-235a36.78,36.78,0,1,1,36.78-36.78A36.63,36.63,0,0,1,964.78,1067.08Zm267.66,67.42a36.78,36.78,0,1,1,36.78-36.77A36.61,36.61,0,0,1,1232.44,1134.5ZM1103.72,701.33c47,0,85.82-38.82,85.82-85.81s-38.83-85.82-85.82-85.82c-22.48,0-45,8.17-61.3,24.52s-24.52,36.78-24.52,61.3C1020,662.51,1056.72,701.33,1103.72,701.33Zm-30.65-116.46c8.17-8.17,20.43-12.26,30.65-12.26,24.52,0,45,20.43,45,44.95s-20.43,45-45,45-45-20.43-45-45C1058.77,603.26,1064.9,593,1073.07,584.87Z"/></svg>